<?xml version="1.0" encoding="UTF-8" ?>
<!DOCTYPE svg PUBLIC "-//W3C//DTD SVG 1.1//EN" "http://www.w3.org/Graphics/SVG/1.1/DTD/svg11.dtd">
<svg width="432pt" height="361pt" viewBox="0 0 432 361" version="1.1" xmlns="http://www.w3.org/2000/svg">
<g id="#ffffffff">
<path fill="#ffffff" opacity="1.00" d=" M 80.67 280.35 C 81.77 279.44 83.60 280.10 84.97 279.87 C 106.74 279.90 128.50 279.88 150.27 279.89 C 150.02 286.96 149.11 293.99 148.66 301.05 C 148.19 308.39 146.95 315.73 147.82 323.10 C 126.18 323.04 104.55 323.12 82.91 323.06 C 80.58 323.40 78.49 321.37 78.70 319.04 C 79.27 306.15 80.03 293.25 80.67 280.35 Z" />
</g>
<g id="#5efba0ff">
<path fill="#5efba0" opacity="1.00" d=" M 117.60 38.54 C 155.83 14.44 203.52 6.13 247.71 15.41 C 281.46 22.26 313.03 39.28 337.41 63.60 C 353.27 79.50 366.28 98.30 375.13 118.96 C 395.58 165.60 394.66 221.21 372.09 266.93 C 370.06 270.97 368.28 275.19 365.42 278.75 C 363.83 273.19 363.90 267.38 363.45 261.66 C 362.07 247.46 361.06 233.22 359.88 218.99 C 359.40 213.46 359.73 206.90 355.20 202.87 C 352.25 199.70 347.78 199.39 343.77 198.85 C 336.97 197.06 329.91 197.90 322.97 197.75 C 293.18 197.65 263.39 197.90 233.60 197.61 C 236.35 197.36 239.09 197.11 241.84 196.86 C 240.65 178.92 239.84 160.95 239.01 142.98 C 238.89 138.06 236.92 133.02 232.84 130.06 C 230.29 127.82 226.72 128.15 223.60 127.64 C 215.03 125.05 205.96 126.54 197.17 125.64 L 197.13 125.17 C 199.83 125.19 202.53 125.22 205.24 125.24 C 205.87 116.14 204.08 106.71 199.03 99.00 C 192.84 89.09 182.36 81.29 170.52 80.17 C 161.98 77.44 152.72 76.47 143.97 78.85 C 129.77 82.40 117.87 93.89 113.88 107.98 C 111.96 113.83 112.17 120.07 112.19 126.15 C 106.42 126.25 100.66 125.93 94.90 126.27 C 88.60 126.54 83.11 131.84 82.14 137.99 C 81.57 141.31 81.58 144.69 81.44 148.05 C 79.70 179.70 78.12 211.35 76.42 242.99 C 76.14 253.97 74.56 264.96 75.56 275.93 C 75.33 274.56 75.10 273.20 74.86 271.84 C 74.43 281.64 73.89 291.44 73.34 301.24 C 72.26 300.22 71.19 299.19 70.24 298.06 C 57.29 281.02 47.27 261.74 41.08 241.24 C 33.44 216.04 31.56 189.12 35.49 163.10 C 42.84 112.22 73.75 65.36 117.60 38.54 Z" />
</g>
<g id="#6b4d44ff">
<path fill="#6b4d44" opacity="1.00" d=" M 371.91 35.61 C 373.69 34.85 375.43 33.62 377.44 33.64 C 379.96 35.23 377.05 38.14 376.47 40.14 C 377.10 42.27 379.30 44.63 377.90 46.85 C 375.68 47.14 373.77 45.81 371.82 44.99 C 369.69 46.06 367.43 46.95 365.00 46.87 C 365.26 44.53 366.17 42.35 366.88 40.13 C 366.11 37.91 364.63 35.73 365.53 33.30 C 367.71 33.90 369.84 34.67 371.91 35.61 Z" />
<path fill="#6b4d44" opacity="1.00" d=" M 16.46 259.75 C 17.20 257.97 17.92 255.92 19.64 254.86 C 20.44 256.46 21.22 258.06 21.99 259.68 C 23.52 260.68 26.39 260.82 26.50 263.13 C 25.05 263.99 23.51 264.67 21.98 265.36 C 21.04 266.86 20.86 270.29 18.41 269.58 C 17.61 268.22 17.07 266.73 16.47 265.29 C 14.56 264.60 12.65 263.80 11.52 262.01 C 13.16 261.24 14.81 260.49 16.46 259.75 Z" />
</g>
<g id="#6b4c42ff">
<path fill="#6b4c42" opacity="1.00" d=" M 47.35 52.36 C 51.92 50.72 56.69 56.12 54.30 60.38 C 52.77 64.28 46.99 64.85 44.50 61.60 C 41.97 58.60 43.54 53.40 47.35 52.36 Z" />
</g>
<g id="#6d4c45ff">
<path fill="#6d4c45" opacity="1.00" d=" M 392.23 66.37 C 394.63 65.11 397.89 67.21 397.49 69.96 C 397.58 72.95 393.32 74.65 391.33 72.39 C 389.41 70.79 389.96 67.31 392.23 66.37 Z" />
</g>
<g id="#6d4c41ff">
<path fill="#6d4c41" opacity="1.00" d=" M 143.97 78.85 C 152.72 76.47 161.98 77.44 170.52 80.17 C 175.05 82.60 179.64 85.09 183.42 88.63 C 189.19 94.00 193.47 100.97 195.64 108.55 C 197.22 113.95 196.70 119.63 197.13 125.17 L 197.17 125.64 C 205.96 126.54 215.03 125.05 223.60 127.64 C 226.98 130.63 230.24 134.36 230.45 139.10 C 231.76 158.59 232.53 178.11 233.60 197.61 C 263.39 197.90 293.18 197.65 322.97 197.75 C 329.91 197.90 336.97 197.06 343.77 198.85 C 347.36 201.54 350.71 205.18 351.05 209.88 C 353.35 236.77 355.27 263.71 357.77 290.59 C 358.23 299.73 359.32 308.84 359.85 317.97 C 360.15 321.39 358.18 324.32 356.29 326.96 C 369.84 326.70 383.40 326.94 396.95 326.81 C 399.22 326.74 401.48 327.02 403.71 327.49 C 403.39 328.72 403.49 330.12 402.65 331.18 C 328.08 331.50 253.51 331.21 178.94 331.31 C 126.14 331.27 73.34 331.41 20.54 331.25 C 19.53 329.81 19.59 328.15 20.67 326.82 C 38.94 326.94 57.21 326.72 75.48 326.93 C 74.11 324.80 72.44 322.60 72.50 319.93 C 72.55 313.69 73.15 307.47 73.34 301.24 C 73.89 291.44 74.43 281.64 74.86 271.84 C 75.10 273.20 75.33 274.56 75.56 275.93 C 74.56 264.96 76.14 253.97 76.42 242.99 C 78.12 211.35 79.70 179.70 81.44 148.05 C 81.58 144.69 81.57 141.31 82.14 137.99 C 83.11 131.84 88.60 126.54 94.90 126.27 C 100.66 125.93 106.42 126.25 112.19 126.15 C 112.17 120.07 111.96 113.83 113.88 107.98 C 117.87 93.89 129.77 82.40 143.97 78.85 M 136.35 90.26 C 128.55 95.00 122.77 102.91 120.56 111.75 C 119.44 116.46 119.61 121.34 119.69 126.14 C 122.40 126.14 125.12 126.14 127.83 126.15 C 148.43 125.97 169.04 126.51 189.62 125.86 C 189.73 119.66 189.76 113.26 187.25 107.45 C 183.60 97.63 175.18 89.91 165.28 86.65 C 155.73 83.77 144.81 84.80 136.35 90.26 M 87.99 140.98 C 85.74 185.22 83.24 229.45 81.12 273.70 C 82.93 273.67 84.75 273.65 86.56 273.63 C 111.16 273.57 135.76 273.88 160.36 273.40 C 160.60 269.86 160.72 266.32 160.79 262.78 C 162.32 259.37 162.02 255.56 162.37 251.92 C 162.61 248.01 163.31 244.13 163.35 240.20 C 164.50 232.85 164.12 225.36 165.15 217.99 C 165.70 212.00 165.09 204.47 170.79 200.67 C 175.92 196.41 182.91 199.13 188.83 197.48 C 201.67 198.54 214.69 197.87 227.59 197.44 C 226.24 182.31 225.92 167.11 225.07 151.96 C 224.20 146.54 225.24 140.85 223.11 135.67 L 222.97 135.68 C 221.23 134.20 219.36 132.45 216.92 132.44 C 210.35 132.14 203.76 132.39 197.18 132.28 C 197.22 133.61 197.28 134.94 197.34 136.27 C 197.42 139.02 197.04 141.75 196.28 144.40 C 193.99 144.70 191.68 144.54 189.68 143.27 C 189.69 140.92 189.59 138.57 189.54 136.22 C 189.55 134.90 189.59 133.59 189.60 132.27 C 166.26 132.44 142.91 132.06 119.57 132.46 C 119.64 133.39 119.76 135.24 119.82 136.16 C 119.71 139.01 120.26 144.06 115.97 143.72 C 111.78 143.95 112.22 139.03 112.13 136.18 C 112.13 134.87 112.13 133.57 112.12 132.27 C 106.44 132.39 100.75 132.06 95.07 132.44 C 90.86 132.77 87.82 136.89 87.99 140.98 M 176.32 204.48 C 173.24 205.64 171.82 208.97 171.79 212.08 C 168.95 247.39 165.90 282.69 163.15 318.00 C 162.73 320.79 165.38 322.41 167.43 323.60 L 167.42 323.63 C 228.45 323.48 289.49 323.64 350.53 323.55 C 355.28 320.10 353.26 313.91 352.91 308.99 C 351.44 290.34 349.91 271.70 348.34 253.06 C 347.33 238.20 345.51 223.40 345.11 208.51 C 344.90 208.48 344.48 208.43 344.27 208.41 C 342.88 206.21 341.03 203.67 338.06 204.00 C 287.07 203.89 236.08 204.01 185.08 203.94 C 182.17 204.00 179.16 203.68 176.32 204.48 M 80.67 280.35 C 80.03 293.25 79.27 306.15 78.70 319.04 C 78.49 321.37 80.58 323.40 82.91 323.06 C 104.55 323.12 126.18 323.04 147.82 323.10 C 151.13 323.10 154.44 323.08 157.75 323.10 C 157.26 320.75 156.85 318.35 157.08 315.94 C 158.04 303.93 159.11 291.92 160.00 279.89 C 156.75 279.88 153.51 279.88 150.27 279.89 C 128.50 279.88 106.74 279.90 84.97 279.87 C 83.60 280.10 81.77 279.44 80.67 280.35 Z" />
</g>
<g id="#61d88eff">
<path fill="#61d88e" opacity="1.00" d=" M 170.52 80.17 C 182.36 81.29 192.84 89.09 199.03 99.00 C 204.08 106.71 205.87 116.14 205.24 125.24 C 202.53 125.22 199.83 125.19 197.13 125.17 C 196.70 119.63 197.22 113.95 195.64 108.55 C 193.47 100.97 189.19 94.00 183.42 88.63 C 179.64 85.09 175.05 82.60 170.52 80.17 Z" />
</g>
<g id="#62d88fff">
<path fill="#62d88f" opacity="1.00" d=" M 136.35 90.26 C 144.81 84.80 155.73 83.77 165.28 86.65 C 158.86 86.68 152.10 87.09 146.44 90.44 C 139.19 94.73 132.85 101.17 130.12 109.29 C 127.99 114.64 127.79 120.46 127.83 126.15 C 125.12 126.14 122.40 126.14 119.69 126.14 C 119.61 121.34 119.44 116.46 120.56 111.75 C 122.77 102.91 128.55 95.00 136.35 90.26 Z" />
</g>
<g id="#6b4c43ff">
<path fill="#6b4c43" opacity="1.00" d=" M 20.12 87.10 C 21.57 84.72 24.51 85.74 26.52 86.69 C 26.95 88.85 27.38 91.77 24.84 92.81 C 21.43 94.74 17.75 90.05 20.12 87.10 Z" />
</g>
<g id="#5efba1ff">
<path fill="#5efba1" opacity="1.00" d=" M 146.44 90.44 C 152.10 87.09 158.86 86.68 165.28 86.65 C 175.18 89.91 183.60 97.63 187.25 107.45 C 189.76 113.26 189.73 119.66 189.62 125.86 C 169.04 126.51 148.43 125.97 127.83 126.15 C 127.79 120.46 127.99 114.64 130.12 109.29 C 132.85 101.17 139.19 94.73 146.44 90.44 Z" />
</g>
<g id="#61d98fff">
<path fill="#61d98f" opacity="1.00" d=" M 223.60 127.64 C 226.72 128.15 230.29 127.82 232.84 130.06 C 236.92 133.02 238.89 138.06 239.01 142.98 C 239.84 160.95 240.65 178.92 241.84 196.86 C 239.09 197.11 236.35 197.36 233.60 197.61 C 232.53 178.11 231.76 158.59 230.45 139.10 C 230.24 134.36 226.98 130.63 223.60 127.64 Z" />
</g>
<g id="#fbada5ff">
<path fill="#fbada5" opacity="1.00" d=" M 87.99 140.98 C 87.82 136.89 90.86 132.77 95.07 132.44 C 100.75 132.06 106.44 132.39 112.12 132.27 C 112.13 133.57 112.13 134.87 112.13 136.18 C 107.27 136.36 101.94 135.20 97.46 137.58 C 93.22 140.17 93.28 145.65 92.99 150.02 C 90.89 191.22 88.60 232.42 86.56 273.63 C 84.75 273.65 82.93 273.67 81.12 273.70 C 83.24 229.45 85.74 185.22 87.99 140.98 Z" />
</g>
<g id="#f8afa5ff">
<path fill="#f8afa5" opacity="1.00" d=" M 119.57 132.46 C 142.91 132.06 166.26 132.44 189.60 132.27 C 189.59 133.59 189.55 134.90 189.54 136.22 C 166.30 135.98 143.06 136.16 119.82 136.16 C 119.76 135.24 119.64 133.39 119.57 132.46 Z" />
</g>
<g id="#f6afa5ff">
<path fill="#f6afa5" opacity="1.00" d=" M 197.18 132.28 C 203.76 132.39 210.35 132.14 216.92 132.44 C 219.36 132.45 221.23 134.20 222.97 135.68 C 219.56 136.00 216.14 136.17 212.72 136.14 C 207.60 136.08 202.47 136.13 197.34 136.27 C 197.28 134.94 197.22 133.61 197.18 132.28 Z" />
</g>
<g id="#db584bff">
<path fill="#db584b" opacity="1.00" d=" M 222.97 135.68 L 223.11 135.67 C 225.24 140.85 224.20 146.54 225.07 151.96 C 225.92 167.11 226.24 182.31 227.59 197.44 C 214.69 197.87 201.67 198.54 188.83 197.48 L 187.62 197.15 C 196.95 196.58 206.33 197.42 215.67 196.62 C 216.26 189.06 215.11 181.54 214.87 174.00 C 214.31 161.37 213.17 148.78 212.72 136.14 C 216.14 136.17 219.56 136.00 222.97 135.68 Z" />
</g>
<g id="#f85c4dff">
<path fill="#f85c4d" opacity="1.00" d=" M 97.46 137.58 C 101.94 135.20 107.27 136.36 112.13 136.18 C 112.22 139.03 111.78 143.95 115.97 143.72 C 120.26 144.06 119.71 139.01 119.82 136.16 C 143.06 136.16 166.30 135.98 189.54 136.22 C 189.59 138.57 189.69 140.92 189.68 143.27 C 191.68 144.54 193.99 144.70 196.28 144.40 C 197.04 141.75 197.42 139.02 197.34 136.27 C 202.47 136.13 207.60 136.08 212.72 136.14 C 213.17 148.78 214.31 161.37 214.87 174.00 C 215.11 181.54 216.26 189.06 215.67 196.62 C 206.33 197.42 196.95 196.58 187.62 197.15 C 185.87 188.12 181.17 179.80 174.49 173.51 C 166.56 168.04 156.20 167.40 146.98 169.28 C 139.91 170.72 134.95 176.44 130.12 181.36 C 129.97 175.90 130.35 170.42 129.88 164.98 C 129.60 161.54 126.47 158.82 123.01 159.02 C 117.64 158.94 111.62 158.02 106.78 160.84 C 104.81 163.82 105.03 167.60 104.89 171.01 C 105.01 182.02 104.86 193.03 104.95 204.03 C 105.07 207.21 105.48 211.81 109.30 212.61 C 115.15 213.56 121.26 213.92 127.04 212.37 C 130.32 219.14 135.64 225.11 142.59 228.22 C 145.64 230.79 149.61 231.06 153.35 231.80 C 154.42 233.66 153.92 235.92 153.90 237.97 C 152.87 249.62 151.80 261.27 150.82 272.93 C 153.66 272.99 156.51 273.08 159.35 273.19 C 160.05 270.03 160.44 266.82 160.52 263.59 L 160.79 262.78 C 160.72 266.32 160.60 269.86 160.36 273.40 C 135.76 273.88 111.16 273.57 86.56 273.63 C 88.60 232.42 90.89 191.22 92.99 150.02 C 93.28 145.65 93.22 140.17 97.46 137.58 Z" />
</g>
<g id="#f96d5eff">
<path fill="#f96d5e" opacity="1.00" d=" M 106.78 160.84 C 111.62 158.02 117.64 158.94 123.01 159.02 C 126.47 158.82 129.60 161.54 129.88 164.98 C 130.35 170.42 129.97 175.90 130.12 181.36 C 128.27 185.81 125.76 190.14 125.28 195.02 C 124.75 200.83 125.02 206.84 127.04 212.37 C 121.26 213.92 115.15 213.56 109.30 212.61 C 105.48 211.81 105.07 207.21 104.95 204.03 C 104.86 193.03 105.01 182.02 104.89 171.01 C 105.03 167.60 104.81 163.82 106.78 160.84 Z" />
</g>
<g id="#cd5748ff">
<path fill="#cd5748" opacity="1.00" d=" M 146.98 169.28 C 156.20 167.40 166.56 168.04 174.49 173.51 C 181.17 179.80 185.87 188.12 187.62 197.15 C 179.83 196.60 171.65 196.24 164.35 199.49 C 160.61 200.78 158.38 204.38 156.80 207.79 C 155.04 212.58 156.63 217.82 155.47 222.72 C 155.19 224.93 154.05 227.18 154.57 229.40 C 156.92 231.16 160.14 230.00 162.85 230.17 C 163.05 233.51 163.29 236.85 163.35 240.20 C 163.31 244.13 162.61 248.01 162.37 251.92 C 162.02 255.56 162.32 259.37 160.79 262.78 L 160.52 263.59 C 160.54 255.38 161.40 247.20 161.78 239.01 C 161.87 236.50 161.34 234.04 160.83 231.60 C 154.59 231.54 148.68 229.33 142.59 228.22 C 135.64 225.11 130.32 219.14 127.04 212.37 C 125.02 206.84 124.75 200.83 125.28 195.02 C 125.76 190.14 128.27 185.81 130.12 181.36 C 134.95 176.44 139.91 170.72 146.98 169.28 Z" />
</g>
<g id="#ba5546ff">
<path fill="#ba5546" opacity="1.00" d=" M 164.35 199.49 C 171.65 196.24 179.83 196.60 187.62 197.15 L 188.83 197.48 C 182.91 199.13 175.92 196.41 170.79 200.67 C 165.09 204.47 165.70 212.00 165.15 217.99 C 164.12 225.36 164.50 232.85 163.35 240.20 C 163.29 236.85 163.05 233.51 162.85 230.17 C 160.14 230.00 156.92 231.16 154.57 229.40 C 154.05 227.18 155.19 224.93 155.47 222.72 C 156.63 217.82 155.04 212.58 156.80 207.79 C 158.38 204.38 160.61 200.78 164.35 199.49 Z" />
</g>
<g id="#61d88fff">
<path fill="#61d88f" opacity="1.00" d=" M 343.77 198.85 C 347.78 199.39 352.25 199.70 355.20 202.87 C 359.73 206.90 359.40 213.46 359.88 218.99 C 361.06 233.22 362.07 247.46 363.45 261.66 C 363.90 267.38 363.83 273.19 365.42 278.75 C 364.03 283.14 360.82 287.08 357.77 290.59 C 355.27 263.71 353.35 236.77 351.05 209.88 C 350.71 205.18 347.36 201.54 343.77 198.85 Z" />
</g>
<g id="#ffecb3ff">
<path fill="#ffecb3" opacity="1.00" d=" M 176.32 204.48 C 179.16 203.68 182.17 204.00 185.08 203.94 C 236.08 204.01 287.07 203.89 338.06 204.00 C 341.03 203.67 342.88 206.21 344.27 208.41 C 343.68 208.36 342.49 208.26 341.90 208.21 C 288.06 208.34 234.21 208.00 180.37 208.38 C 178.61 210.62 176.46 212.92 176.55 215.98 C 175.81 227.57 174.61 239.12 173.74 250.69 C 172.25 258.86 171.16 267.13 171.73 275.45 C 170.47 290.25 169.47 305.07 168.04 319.86 C 167.86 321.11 167.64 322.35 167.43 323.60 C 165.38 322.41 162.73 320.79 163.15 318.00 C 165.90 282.69 168.95 247.39 171.79 212.08 C 171.82 208.97 173.24 205.64 176.32 204.48 Z" />
</g>
<g id="#fec108ff">
<path fill="#fec108" opacity="1.00" d=" M 180.37 208.38 C 234.21 208.00 288.06 208.34 341.90 208.21 C 342.30 215.47 341.87 222.74 341.65 230.00 C 341.02 245.32 341.27 260.67 340.42 275.98 C 340.08 289.56 331.23 302.37 318.85 307.80 C 312.39 310.92 305.08 310.98 298.08 311.47 C 260.72 314.12 223.34 316.49 185.99 319.29 C 180.02 319.70 174.03 320.27 168.04 319.86 C 169.47 305.07 170.47 290.25 171.73 275.45 C 173.13 267.27 173.98 259.00 173.74 250.69 C 174.61 239.12 175.81 227.57 176.55 215.98 C 176.46 212.92 178.61 210.62 180.37 208.38 M 210.99 213.95 C 204.81 214.71 198.55 213.73 192.40 214.64 C 191.19 214.74 190.79 216.14 190.52 217.11 C 189.23 222.49 189.08 228.15 189.70 233.63 C 190.81 235.58 192.83 237.26 195.15 237.42 C 201.46 237.90 207.80 237.12 214.10 237.64 C 216.96 239.96 215.92 244.75 218.68 247.37 C 219.15 248.93 219.78 250.44 220.40 251.96 C 220.11 252.52 219.55 253.64 219.26 254.20 C 216.62 255.05 213.81 255.80 211.72 257.74 C 205.50 262.66 205.00 272.11 208.08 278.93 C 211.11 285.09 218.43 287.53 224.92 287.18 C 237.94 286.81 250.97 287.46 263.98 286.91 C 269.02 286.79 274.04 287.36 279.08 287.07 C 286.13 286.65 293.33 287.93 300.27 286.22 C 310.94 282.77 314.18 267.27 306.54 259.45 C 305.58 257.21 304.50 254.81 305.37 252.35 C 306.97 246.09 306.82 239.57 306.64 233.16 C 306.57 229.56 304.29 226.60 302.20 223.87 C 301.23 223.02 300.20 222.25 299.19 221.46 C 298.01 221.92 296.83 222.36 295.65 222.81 C 294.18 227.06 294.86 231.59 294.76 235.99 C 294.98 242.27 293.46 248.60 290.21 253.99 C 270.58 253.66 250.93 254.22 231.30 253.71 C 229.43 249.35 228.28 244.63 228.69 239.85 C 229.46 239.17 230.25 238.48 231.04 237.81 C 234.03 237.27 238.63 237.46 239.41 233.65 C 240.00 228.79 239.75 223.85 239.58 218.96 C 239.82 215.92 236.45 214.77 234.07 214.16 C 228.88 212.56 223.52 214.42 218.25 213.80 C 215.83 213.54 213.40 213.63 210.99 213.95 Z" />
</g>
<g id="#e3a912ff">
<path fill="#e3a912" opacity="1.00" d=" M 341.90 208.21 C 342.49 208.26 343.68 208.36 344.27 208.41 C 344.48 208.43 344.90 208.48 345.11 208.51 C 345.51 223.40 347.33 238.20 348.34 253.06 C 349.91 271.70 351.44 290.34 352.91 308.99 C 353.26 313.91 355.28 320.10 350.53 323.55 C 289.49 323.64 228.45 323.48 167.42 323.63 L 167.43 323.60 C 167.64 322.35 167.86 321.11 168.04 319.86 C 174.03 320.27 180.02 319.70 185.99 319.29 C 223.34 316.49 260.72 314.12 298.08 311.47 C 305.08 310.98 312.39 310.92 318.85 307.80 C 331.23 302.37 340.08 289.56 340.42 275.98 C 341.27 260.67 341.02 245.32 341.65 230.00 C 341.87 222.74 342.30 215.47 341.90 208.21 Z" />
</g>
<g id="#fecd39ff">
<path fill="#fecd39" opacity="1.00" d=" M 210.99 213.95 C 213.40 213.63 215.83 213.54 218.25 213.80 C 223.52 214.42 228.88 212.56 234.07 214.16 C 236.45 214.77 239.82 215.92 239.58 218.96 C 239.75 223.85 240.00 228.79 239.41 233.65 C 238.63 237.46 234.03 237.27 231.04 237.81 C 230.25 238.48 229.46 239.17 228.69 239.85 C 228.77 238.19 228.90 236.53 229.00 234.87 C 229.13 232.06 228.96 229.24 228.76 226.44 C 228.04 226.25 226.61 225.89 225.89 225.71 C 225.62 229.94 225.83 234.17 226.13 238.39 C 225.93 239.74 225.75 241.09 225.58 242.44 C 224.87 235.98 225.76 229.44 224.87 223.00 C 224.84 220.65 222.22 219.11 220.11 220.01 C 217.69 220.29 217.45 223.05 217.47 224.98 C 217.51 232.45 216.94 240.03 218.68 247.37 C 215.92 244.75 216.96 239.96 214.10 237.64 C 207.80 237.12 201.46 237.90 195.15 237.42 C 192.83 237.26 190.81 235.58 189.70 233.63 C 189.08 228.15 189.23 222.49 190.52 217.11 C 190.79 216.14 191.19 214.74 192.40 214.64 C 198.55 213.73 204.81 214.71 210.99 213.95 Z" />
</g>
<g id="#6e4c3fff">
<path fill="#6e4c3f" opacity="1.00" d=" M 217.47 224.98 C 217.45 223.05 217.69 220.29 220.11 220.01 C 222.22 219.11 224.84 220.65 224.87 223.00 C 225.76 229.44 224.87 235.98 225.58 242.44 C 227.55 256.07 238.87 267.74 252.32 270.55 C 266.75 273.90 283.04 267.10 290.21 253.99 C 293.46 248.60 294.98 242.27 294.76 235.99 C 294.86 231.59 294.18 227.06 295.65 222.81 C 296.83 222.36 298.01 221.92 299.19 221.46 C 300.20 222.25 301.23 223.02 302.20 223.87 C 302.60 233.93 303.28 244.51 298.84 253.87 C 293.64 265.83 282.52 274.86 269.86 277.82 C 260.99 279.66 251.65 278.96 243.19 275.71 C 232.64 271.52 224.41 262.48 220.40 251.96 C 219.78 250.44 219.15 248.93 218.68 247.37 C 216.94 240.03 217.51 232.45 217.47 224.98 Z" />
</g>
<g id="#e2a914ff">
<path fill="#e2a914" opacity="1.00" d=" M 302.20 223.87 C 304.29 226.60 306.57 229.56 306.64 233.16 C 306.82 239.57 306.97 246.09 305.37 252.35 C 304.50 254.81 305.58 257.21 306.54 259.45 C 305.88 258.81 305.21 258.20 304.52 257.61 C 302.75 256.17 300.79 255.02 298.84 253.87 C 303.28 244.51 302.60 233.93 302.20 223.87 Z" />
</g>
<g id="#e3b73aff">
<path fill="#e3b73a" opacity="1.00" d=" M 225.89 225.71 C 226.61 225.89 228.04 226.25 228.76 226.44 C 228.96 229.24 229.13 232.06 229.00 234.87 C 228.03 236.03 227.05 237.19 226.13 238.39 C 225.83 234.17 225.62 229.94 225.89 225.71 Z" />
</g>
<g id="#db584aff">
<path fill="#db584a" opacity="1.00" d=" M 142.59 228.22 C 148.68 229.33 154.59 231.54 160.83 231.60 C 161.34 234.04 161.87 236.50 161.78 239.01 C 161.40 247.20 160.54 255.38 160.52 263.59 C 160.44 266.82 160.05 270.03 159.35 273.19 C 156.51 273.08 153.66 272.99 150.82 272.93 C 151.80 261.27 152.87 249.62 153.90 237.97 C 153.92 235.92 154.42 233.66 153.35 231.80 C 149.61 231.06 145.64 230.79 142.59 228.22 Z" />
</g>
<g id="#d49d19ff">
<path fill="#d49d19" opacity="1.00" d=" M 226.13 238.39 C 227.05 237.19 228.03 236.03 229.00 234.87 C 228.90 236.53 228.77 238.19 228.69 239.85 C 228.28 244.63 229.43 249.35 231.30 253.71 C 250.93 254.22 270.58 253.66 290.21 253.99 C 283.04 267.10 266.75 273.90 252.32 270.55 C 238.87 267.74 227.55 256.07 225.58 242.44 C 225.75 241.09 225.93 239.74 226.13 238.39 Z" />
</g>
<g id="#ffdd64ff">
<path fill="#ffdd64" opacity="1.00" d=" M 171.73 275.45 C 171.16 267.13 172.25 258.86 173.74 250.69 C 173.98 259.00 173.13 267.27 171.73 275.45 Z" />
</g>
<g id="#d49e19ff">
<path fill="#d49e19" opacity="1.00" d=" M 220.40 251.96 C 224.41 262.48 232.64 271.52 243.19 275.71 C 241.38 275.47 239.56 275.33 237.75 275.20 C 241.59 278.19 245.66 281.11 250.40 282.46 C 261.62 285.32 274.13 285.22 284.45 279.46 C 293.35 274.59 299.37 266.08 304.52 257.61 C 305.21 258.20 305.88 258.81 306.54 259.45 C 314.18 267.27 310.94 282.77 300.27 286.22 C 293.33 287.93 286.13 286.65 279.08 287.07 C 274.04 287.36 269.02 286.79 263.98 286.91 C 250.97 287.46 237.94 286.81 224.92 287.18 C 218.43 287.53 211.11 285.09 208.08 278.93 C 205.00 272.11 205.50 262.66 211.72 257.74 C 213.81 255.80 216.62 255.05 219.26 254.20 C 219.55 253.64 220.11 252.52 220.40 251.96 Z" />
</g>
<g id="#bf8d20ff">
<path fill="#bf8d20" opacity="1.00" d=" M 269.86 277.82 C 282.52 274.86 293.64 265.83 298.84 253.87 C 300.79 255.02 302.75 256.17 304.52 257.61 C 299.37 266.08 293.35 274.59 284.45 279.46 C 274.13 285.22 261.62 285.32 250.40 282.46 C 245.66 281.11 241.59 278.19 237.75 275.20 C 239.56 275.33 241.38 275.47 243.19 275.71 C 251.65 278.96 260.99 279.66 269.86 277.82 Z" />
</g>
<g id="#e2dad8ff">
<path fill="#e2dad8" opacity="1.00" d=" M 150.27 279.89 C 153.51 279.88 156.75 279.88 160.00 279.89 C 159.11 291.92 158.04 303.93 157.08 315.94 C 156.85 318.35 157.26 320.75 157.75 323.10 C 154.44 323.08 151.13 323.10 147.82 323.10 C 146.95 315.73 148.19 308.39 148.66 301.05 C 149.11 293.99 150.02 286.96 150.27 279.89 Z" />
</g>
<g id="#6a4b45ff">
<path fill="#6a4b45" opacity="1.00" d=" M 35.37 285.38 C 38.27 283.99 41.91 286.79 40.77 289.95 C 40.18 293.26 34.96 293.62 33.70 290.63 C 32.73 288.74 33.57 286.40 35.37 285.38 Z" />
</g>
<g id="#6c4c42ff">
<path fill="#6c4c42" opacity="1.00" d=" M 388.27 289.34 C 391.62 287.14 396.15 291.14 394.57 294.74 C 393.61 297.91 388.81 298.60 386.96 295.88 C 385.27 293.91 385.99 290.54 388.27 289.34 Z" />
</g>
<g id="#d3c8c7ff">
<path fill="#d3c8c7" opacity="1.00" d=" M 20.54 331.25 C 73.34 331.41 126.14 331.27 178.94 331.31 C 253.51 331.21 328.08 331.50 402.65 331.18 C 408.85 331.43 415.18 331.94 421.07 334.03 C 415.80 337.06 409.46 336.52 403.64 337.37 C 360.98 340.66 318.17 340.86 275.42 341.76 C 254.66 343.88 233.79 344.51 212.95 345.00 C 188.62 345.42 164.29 345.41 139.97 344.70 C 120.59 344.04 101.09 343.60 81.91 340.48 C 57.27 339.38 32.52 339.11 8.00 336.09 C 6.40 335.47 2.76 335.98 3.11 333.46 C 8.81 332.12 14.68 331.35 20.54 331.25 Z" />
</g>
</svg>
