<?xml version="1.0" encoding="UTF-8" ?>
<!DOCTYPE svg PUBLIC "-//W3C//DTD SVG 1.1//EN" "http://www.w3.org/Graphics/SVG/1.1/DTD/svg11.dtd">
<svg width="294pt" height="291pt" viewBox="0 0 294 291" version="1.1" xmlns="http://www.w3.org/2000/svg">
<g id="#ffffffff">
<path fill="#ffffff" opacity="1.00" d=" M 131.13 62.52 C 139.95 60.88 149.01 60.56 157.90 61.75 C 171.91 63.53 185.41 68.94 196.83 77.23 C 203.54 82.11 209.51 87.99 214.57 94.56 C 227.75 111.76 233.79 134.07 231.41 155.58 C 229.07 175.64 219.44 194.74 204.55 208.41 C 198.93 213.74 192.34 217.82 185.76 221.83 C 176.76 204.78 174.14 184.96 175.08 165.89 C 172.91 165.86 170.73 165.84 168.55 165.81 C 165.65 179.66 170.77 193.56 175.91 206.25 C 165.33 190.36 154.55 174.44 141.31 160.62 C 138.72 157.93 135.89 155.49 132.99 153.16 C 131.42 154.45 129.85 155.75 128.28 157.05 C 136.46 164.80 144.41 172.78 151.83 181.26 C 145.78 176.45 138.94 172.15 131.13 171.09 C 124.03 170.01 116.02 171.66 111.03 177.11 C 107.75 180.55 106.66 185.95 108.79 190.27 C 111.02 195.14 115.83 197.95 120.33 200.43 C 118.27 196.40 115.59 191.84 117.23 187.18 C 119.11 182.12 125.00 180.15 129.98 180.13 C 137.39 179.86 143.86 184.19 149.33 188.72 C 161.17 198.85 169.76 212.08 177.65 225.35 C 172.18 227.06 166.73 228.90 161.05 229.76 C 157.80 230.28 154.53 230.61 151.25 230.84 C 140.09 231.37 128.85 229.70 118.31 225.99 C 109.58 222.83 101.37 218.26 94.10 212.49 C 72.94 195.90 60.63 168.83 62.08 141.98 C 62.98 121.83 71.36 102.16 85.27 87.56 C 90.89 81.69 97.30 76.57 104.33 72.49 C 112.62 67.69 121.72 64.29 131.13 62.52 M 101.01 110.87 C 101.78 109.96 102.55 109.05 103.32 108.15 C 115.44 116.09 125.47 128.34 127.91 142.92 C 127.99 144.70 128.91 146.15 130.30 147.20 C 131.95 138.80 131.91 128.83 125.69 122.22 C 122.24 119.01 117.93 116.79 114.87 113.13 C 108.74 106.78 105.36 97.84 106.58 89.01 C 102.13 95.32 99.65 103.13 101.01 110.87 M 155.25 108.91 C 152.41 121.62 156.83 134.72 163.11 145.70 C 162.79 137.12 159.21 128.66 160.92 120.03 C 161.89 114.11 169.39 110.36 174.57 113.47 C 178.14 116.06 179.08 120.71 179.67 124.81 C 180.77 135.95 179.15 147.26 175.73 157.88 C 181.78 151.54 186.31 143.70 188.29 135.13 C 191.55 121.38 188.83 106.89 183.20 94.13 C 176.78 96.34 174.12 102.99 171.15 108.48 C 167.96 103.08 168.12 96.69 168.42 90.65 C 162.20 95.08 156.90 101.29 155.25 108.91 M 128.04 109.18 C 132.28 111.73 136.03 115.21 138.16 119.74 C 141.69 125.95 141.14 133.42 143.94 139.90 C 147.66 149.85 155.83 158.02 165.91 161.45 C 165.81 160.67 165.61 159.10 165.51 158.31 C 161.36 155.22 157.63 151.43 155.38 146.72 C 150.49 137.50 151.11 126.35 145.74 117.35 C 142.02 111.32 134.59 109.76 128.04 109.18 M 71.90 115.02 C 76.63 117.81 81.39 120.99 84.03 126.00 C 78.36 125.80 71.91 124.13 67.05 128.03 C 71.96 135.58 78.01 142.49 85.55 147.50 C 95.29 154.25 107.60 156.66 119.24 154.73 C 109.43 151.90 99.99 147.42 92.08 140.91 C 89.22 138.32 86.04 135.17 86.02 131.04 C 86.49 125.60 93.10 121.95 98.02 124.29 C 105.36 127.48 110.01 134.38 116.27 139.08 C 111.38 129.17 104.18 119.69 93.93 114.95 C 86.99 111.68 78.91 112.32 71.90 115.02 M 191.30 166.28 C 185.00 169.36 181.39 176.20 180.89 183.02 C 179.85 195.23 183.87 207.13 188.41 218.28 C 189.50 217.67 190.59 217.06 191.69 216.45 C 189.31 206.38 187.20 195.74 189.63 185.47 C 190.98 179.50 195.75 174.07 202.09 173.44 C 205.01 173.30 208.85 172.54 210.72 175.48 C 214.33 180.52 212.15 187.08 210.83 192.54 C 212.80 190.96 214.86 189.36 216.19 187.16 C 219.47 181.89 218.69 174.74 215.34 169.72 C 208.97 163.92 199.04 162.47 191.30 166.28 Z" />
<path fill="#ffffff" opacity="1.00" d=" M 168.07 201.61 C 173.23 208.56 177.63 216.09 181.21 223.97 C 180.65 224.13 179.52 224.46 178.96 224.62 C 175.83 216.72 172.30 208.98 168.07 201.61 Z" />
</g>
<g id="#ce9d2bff">
<path fill="#ce9d2b" opacity="1.00" d=" M 134.03 3.96 C 143.76 2.62 153.64 3.09 163.37 4.19 L 163.06 4.46 C 161.39 5.96 159.61 7.45 158.52 9.45 C 157.42 14.65 158.19 20.02 158.57 25.27 C 158.15 27.46 156.98 29.74 157.88 31.96 C 159.36 35.67 163.67 36.98 165.75 40.23 C 167.00 42.73 164.95 46.19 162.00 45.46 C 159.16 45.45 158.42 42.51 157.39 40.46 C 156.92 40.45 156.00 40.43 155.53 40.42 C 155.30 42.23 155.07 44.03 154.85 45.84 C 156.54 46.32 158.23 46.82 159.95 47.23 C 158.93 47.91 158.36 48.83 158.26 50.00 C 157.89 53.90 158.05 57.83 157.90 61.75 C 149.01 60.56 139.95 60.88 131.13 62.52 C 131.19 57.82 130.52 53.04 131.45 48.39 C 132.44 46.90 133.82 45.71 135.07 44.43 C 135.50 44.98 136.35 46.07 136.77 46.61 C 138.25 46.39 139.73 46.17 141.21 45.96 C 140.25 38.81 139.11 31.69 138.29 24.52 C 138.97 23.59 139.65 22.66 140.34 21.72 C 137.75 22.08 135.17 22.50 132.61 23.03 C 133.27 23.48 134.59 24.37 135.24 24.82 C 135.99 29.65 136.72 34.48 137.48 39.30 C 135.25 36.34 133.05 33.36 130.76 30.44 C 131.24 25.46 130.37 20.32 131.54 15.45 C 134.41 11.28 138.65 8.30 141.90 4.44 C 139.28 4.25 136.66 4.03 134.03 3.96 M 147.38 20.69 C 147.67 23.51 147.28 26.31 146.05 28.87 C 146.47 29.10 147.31 29.58 147.72 29.81 C 150.56 27.64 152.51 24.41 151.47 20.74 C 150.45 20.73 148.40 20.71 147.38 20.69 Z" />
</g>
<g id="#c6982eff">
<path fill="#c6982e" opacity="1.00" d=" M 115.30 6.78 C 121.48 5.47 127.69 4.12 134.03 3.96 C 136.66 4.03 139.28 4.25 141.90 4.44 C 138.65 8.30 134.41 11.28 131.54 15.45 C 130.37 20.32 131.24 25.46 130.76 30.44 C 129.06 28.29 127.37 26.11 125.73 23.91 C 123.22 24.18 120.71 24.48 118.20 24.74 C 119.29 26.02 120.85 27.14 120.94 28.98 C 121.91 34.60 122.52 40.29 123.29 45.94 C 122.84 46.62 121.92 47.97 121.47 48.65 C 123.83 48.36 126.19 48.08 128.55 47.83 C 127.69 46.63 126.35 45.64 126.10 44.10 C 125.17 39.47 124.76 34.77 123.95 30.12 C 127.61 34.93 131.35 39.67 135.07 44.43 C 133.82 45.71 132.44 46.90 131.45 48.39 C 130.52 53.04 131.19 57.82 131.13 62.52 C 121.72 64.29 112.62 67.69 104.33 72.49 C 104.10 67.70 103.39 62.83 104.27 58.07 C 105.35 54.46 108.97 52.90 112.35 52.21 C 114.96 51.07 117.52 49.84 120.17 48.79 C 118.07 47.64 116.11 46.21 114.73 44.24 C 111.05 39.34 107.00 34.73 103.52 29.69 C 104.00 25.95 103.77 22.13 104.50 18.43 C 107.66 14.18 112.04 10.98 115.30 6.78 Z" />
</g>
<g id="#d9a427ff">
<path fill="#d9a427" opacity="1.00" d=" M 158.52 9.45 C 159.61 7.45 161.39 5.96 163.06 4.46 C 167.09 4.09 171.05 5.33 174.99 6.03 C 187.75 8.44 200.08 12.89 211.67 18.69 C 207.04 23.46 202.24 28.06 197.79 33.01 C 195.18 31.85 192.57 30.69 189.96 29.54 C 189.11 31.43 188.26 33.33 187.42 35.23 C 187.90 35.41 188.87 35.76 189.36 35.94 C 191.24 34.14 193.59 33.09 196.18 34.06 C 193.66 40.34 190.84 46.51 187.95 52.63 C 187.14 52.84 185.52 53.26 184.70 53.47 C 187.86 55.06 191.11 56.43 194.36 57.79 C 192.12 53.92 195.42 50.23 196.74 46.68 C 197.13 56.86 197.04 67.05 196.83 77.23 C 185.41 68.94 171.91 63.53 157.90 61.75 C 158.05 57.83 157.89 53.90 158.26 50.00 C 158.36 48.83 158.93 47.91 159.95 47.23 C 162.55 47.48 165.39 48.12 167.82 46.84 C 171.21 45.25 172.42 40.59 170.67 37.40 C 168.79 34.31 165.05 32.95 163.13 29.91 C 161.90 27.55 164.18 24.64 166.78 25.36 C 169.21 25.40 169.84 28.01 170.75 29.76 C 171.25 29.83 172.27 29.96 172.77 30.03 C 173.00 28.29 173.23 26.55 173.47 24.81 C 168.65 23.22 163.05 22.15 158.57 25.27 C 158.19 20.02 157.42 14.65 158.52 9.45 Z" />
</g>
<g id="#bd9331ff">
<path fill="#bd9331" opacity="1.00" d=" M 59.37 33.08 C 75.93 20.58 94.98 11.22 115.30 6.78 C 112.04 10.98 107.66 14.18 104.50 18.43 C 103.77 22.13 104.00 25.95 103.52 29.69 C 101.96 30.14 100.41 30.61 98.86 31.08 C 98.82 37.73 99.13 44.36 99.27 51.00 C 99.37 53.32 98.71 55.56 98.04 57.76 C 100.57 56.71 103.10 55.66 105.59 54.54 C 104.82 54.21 103.27 53.57 102.49 53.25 C 102.25 51.55 102.01 49.85 101.78 48.16 C 104.21 47.19 106.64 46.22 109.07 45.24 C 110.49 47.15 111.55 49.31 111.43 51.73 C 111.66 51.85 112.12 52.09 112.35 52.21 C 108.97 52.90 105.35 54.46 104.27 58.07 C 103.39 62.83 104.10 67.70 104.33 72.49 C 97.30 76.57 90.89 81.69 85.27 87.56 C 84.62 80.72 84.75 73.82 84.81 66.96 C 84.71 64.91 85.73 63.10 86.64 61.34 C 87.76 62.28 88.89 63.21 90.02 64.14 C 91.14 63.20 92.25 62.26 93.36 61.32 C 91.94 57.37 90.66 53.38 89.36 49.39 C 88.01 45.18 86.05 40.97 86.53 36.43 C 84.43 37.98 82.31 39.50 80.16 40.98 C 81.61 41.71 83.81 41.71 84.30 43.61 C 86.19 47.86 87.51 52.34 89.02 56.73 C 84.36 52.82 79.72 48.87 75.05 44.97 C 73.99 45.77 72.93 46.55 71.85 47.32 C 74.00 53.10 76.35 58.79 78.48 64.57 C 74.78 61.57 70.88 58.80 67.41 55.54 C 65.98 54.57 66.82 52.73 66.69 51.35 C 64.70 52.79 62.70 54.21 60.76 55.72 C 59.26 48.34 60.99 40.76 59.42 33.39 L 59.37 33.08 Z" />
</g>
<g id="#e1aa23ff">
<path fill="#e1aa23" opacity="1.00" d=" M 211.67 18.69 C 217.73 21.87 223.63 25.32 229.19 29.31 C 225.09 33.44 220.81 37.40 217.04 41.84 C 217.56 42.64 218.09 43.43 218.63 44.21 C 218.17 43.82 217.25 43.03 216.79 42.64 C 216.73 50.75 206.34 54.09 205.62 62.04 C 206.17 67.00 210.93 70.09 215.21 71.75 C 215.00 79.35 215.53 86.99 214.57 94.56 C 209.51 87.99 203.54 82.11 196.83 77.23 C 197.04 67.05 197.13 56.86 196.74 46.68 C 198.20 43.26 199.73 39.87 201.30 36.49 C 204.76 37.79 203.75 41.90 206.14 44.08 C 207.13 42.07 208.05 40.04 208.97 38.00 C 205.25 36.32 201.52 34.66 197.79 33.01 C 202.24 28.06 207.04 23.46 211.67 18.69 Z" />
</g>
<g id="#231f20ff">
<path fill="#231f20" opacity="1.00" d=" M 147.38 20.69 C 148.40 20.71 150.45 20.73 151.47 20.74 C 152.51 24.41 150.56 27.64 147.72 29.81 C 147.31 29.58 146.47 29.10 146.05 28.87 C 147.28 26.31 147.67 23.51 147.38 20.69 Z" />
<path fill="#231f20" opacity="1.00" d=" M 132.61 23.03 C 135.17 22.50 137.75 22.08 140.34 21.72 C 139.65 22.66 138.97 23.59 138.29 24.52 C 139.11 31.69 140.25 38.81 141.21 45.96 C 139.73 46.17 138.25 46.39 136.77 46.61 C 136.35 46.07 135.50 44.98 135.07 44.43 C 131.35 39.67 127.61 34.93 123.95 30.12 C 124.76 34.77 125.17 39.47 126.10 44.10 C 126.35 45.64 127.69 46.63 128.55 47.83 C 126.19 48.08 123.83 48.36 121.47 48.65 C 121.92 47.97 122.84 46.62 123.29 45.94 C 122.52 40.29 121.91 34.60 120.94 28.98 C 120.85 27.14 119.29 26.02 118.20 24.74 C 120.71 24.48 123.22 24.18 125.73 23.91 C 127.37 26.11 129.06 28.29 130.76 30.44 C 133.05 33.36 135.25 36.34 137.48 39.30 C 136.72 34.48 135.99 29.65 135.24 24.82 C 134.59 24.37 133.27 23.48 132.61 23.03 Z" />
<path fill="#231f20" opacity="1.00" d=" M 158.57 25.27 C 163.05 22.15 168.65 23.22 173.47 24.81 C 173.23 26.55 173.00 28.29 172.77 30.03 C 172.27 29.96 171.25 29.83 170.75 29.76 C 169.84 28.01 169.21 25.40 166.78 25.36 C 164.18 24.64 161.90 27.55 163.13 29.91 C 165.05 32.95 168.79 34.31 170.67 37.40 C 172.42 40.59 171.21 45.25 167.82 46.84 C 165.39 48.12 162.55 47.48 159.95 47.23 C 158.23 46.82 156.54 46.32 154.85 45.84 C 155.07 44.03 155.30 42.23 155.53 40.42 C 156.00 40.43 156.92 40.45 157.39 40.46 C 158.42 42.51 159.16 45.45 162.00 45.46 C 164.95 46.19 167.00 42.73 165.75 40.23 C 163.67 36.98 159.36 35.67 157.88 31.96 C 156.98 29.74 158.15 27.46 158.57 25.27 Z" />
<path fill="#231f20" opacity="1.00" d=" M 98.86 31.08 C 100.41 30.61 101.96 30.14 103.52 29.69 C 107.00 34.73 111.05 39.34 114.73 44.24 C 116.11 46.21 118.07 47.64 120.17 48.79 C 117.52 49.84 114.96 51.07 112.35 52.21 C 112.12 52.09 111.66 51.85 111.43 51.73 C 111.55 49.31 110.49 47.15 109.07 45.24 C 106.64 46.22 104.21 47.19 101.78 48.16 C 102.01 49.85 102.25 51.55 102.49 53.25 C 103.27 53.57 104.82 54.21 105.59 54.54 C 103.10 55.66 100.57 56.71 98.04 57.76 C 98.71 55.56 99.37 53.32 99.27 51.00 C 99.13 44.36 98.82 37.73 98.86 31.08 M 101.27 35.65 C 101.42 39.07 101.57 42.48 101.70 45.90 C 103.65 45.16 105.61 44.43 107.56 43.68 C 105.58 40.92 103.48 38.24 101.27 35.65 Z" />
<path fill="#231f20" opacity="1.00" d=" M 189.96 29.54 C 192.57 30.69 195.18 31.85 197.79 33.01 C 201.52 34.66 205.25 36.32 208.97 38.00 C 208.05 40.04 207.13 42.07 206.14 44.08 C 203.75 41.90 204.76 37.79 201.30 36.49 C 199.73 39.87 198.20 43.26 196.74 46.68 C 195.42 50.23 192.12 53.92 194.36 57.79 C 191.11 56.43 187.86 55.06 184.70 53.47 C 185.52 53.26 187.14 52.84 187.95 52.63 C 190.84 46.51 193.66 40.34 196.18 34.06 C 193.59 33.09 191.24 34.14 189.36 35.94 C 188.87 35.76 187.90 35.41 187.42 35.23 C 188.26 33.33 189.11 31.43 189.96 29.54 Z" />
<path fill="#231f20" opacity="1.00" d=" M 80.16 40.98 C 82.31 39.50 84.43 37.98 86.53 36.43 C 86.05 40.97 88.01 45.18 89.36 49.39 C 90.66 53.38 91.94 57.37 93.36 61.32 C 92.25 62.26 91.14 63.20 90.02 64.14 C 88.89 63.21 87.76 62.28 86.64 61.34 C 83.46 58.67 80.27 56.00 76.95 53.50 C 78.84 58.88 81.10 64.12 82.93 69.52 C 81.80 70.32 80.66 71.13 79.54 71.95 C 74.48 68.16 69.54 64.21 64.57 60.30 C 62.86 58.88 60.75 58.10 58.69 57.35 C 59.38 56.80 60.06 56.26 60.76 55.72 C 62.70 54.21 64.70 52.79 66.69 51.35 C 66.82 52.73 65.98 54.57 67.41 55.54 C 70.88 58.80 74.78 61.57 78.48 64.57 C 76.35 58.79 74.00 53.10 71.85 47.32 C 72.93 46.55 73.99 45.77 75.05 44.97 C 79.72 48.87 84.36 52.82 89.02 56.73 C 87.51 52.34 86.19 47.86 84.30 43.61 C 83.81 41.71 81.61 41.71 80.16 40.98 Z" />
<path fill="#231f20" opacity="1.00" d=" M 216.79 42.64 C 217.25 43.03 218.17 43.82 218.63 44.21 C 220.47 45.85 222.36 47.43 224.26 49.00 C 222.12 49.26 220.14 50.12 218.92 51.95 C 216.06 55.67 212.49 58.91 210.27 63.07 C 208.60 66.55 213.84 70.46 216.56 67.56 C 220.65 63.77 223.85 59.12 227.51 54.93 C 227.43 54.09 227.26 52.42 227.18 51.58 C 229.43 53.36 231.63 55.19 233.85 57.01 C 225.49 58.76 224.05 70.74 215.21 71.75 C 210.93 70.09 206.17 67.00 205.62 62.04 C 206.34 54.09 216.73 50.75 216.79 42.64 Z" />
<path fill="#231f20" opacity="1.00" d=" M 238.93 62.58 C 241.36 65.07 243.49 67.82 245.37 70.74 C 244.56 70.61 242.93 70.37 242.12 70.24 C 236.94 74.20 231.84 78.27 226.68 82.27 C 227.72 83.55 228.68 84.93 229.95 86.03 C 232.25 86.90 235.31 83.87 236.88 86.80 C 234.88 88.22 232.87 89.62 230.85 91.02 C 227.44 86.31 223.24 82.14 220.45 77.01 C 221.13 77.21 222.48 77.61 223.16 77.81 C 228.54 74.02 233.62 69.85 238.77 65.77 C 238.81 64.97 238.89 63.38 238.93 62.58 Z" />
<path fill="#231f20" opacity="1.00" d=" M 47.94 70.94 C 48.97 69.75 49.99 68.56 51.02 67.38 C 57.36 70.22 63.64 73.21 69.98 76.05 C 71.50 76.83 73.25 76.62 74.89 76.70 C 72.78 79.40 70.55 82.01 68.09 84.40 C 68.77 81.07 65.77 79.94 63.34 78.79 C 61.70 80.69 60.04 82.55 58.33 84.38 C 59.45 86.93 61.26 89.70 64.46 88.49 C 60.89 91.93 59.68 96.65 57.81 101.05 C 54.57 101.30 51.32 101.21 48.07 101.40 C 46.50 101.28 45.88 102.93 44.93 103.87 C 47.28 105.07 49.65 106.20 52.06 107.26 C 53.10 106.87 54.14 106.49 55.19 106.11 C 53.95 109.31 52.50 112.41 50.86 115.42 C 50.58 114.64 50.00 113.08 49.72 112.30 C 44.48 109.82 39.25 107.32 33.97 104.93 C 32.49 103.99 30.82 104.73 29.30 105.09 C 31.71 100.32 33.15 94.83 36.85 90.85 C 41.25 86.89 48.12 91.72 47.39 97.18 C 51.03 95.30 55.23 96.05 59.13 95.27 C 58.94 93.21 58.99 91.02 57.85 89.20 C 54.55 83.11 51.21 77.04 47.94 70.94 M 52.21 73.63 C 53.83 76.64 55.50 79.63 57.21 82.59 C 58.51 81.08 60.17 79.77 60.96 77.90 C 58.30 76.02 55.11 75.06 52.21 73.63 M 34.31 99.01 C 37.37 100.49 40.43 101.98 43.65 103.10 C 44.01 101.18 45.38 98.93 44.01 97.11 C 42.60 95.33 40.23 94.44 37.99 94.54 C 35.93 95.15 35.24 97.33 34.31 99.01 Z" />
<path fill="#231f20" opacity="1.00" d=" M 252.23 84.87 C 252.45 83.75 252.66 82.63 252.86 81.51 C 254.66 84.40 256.26 87.41 257.91 90.40 C 254.96 89.58 252.33 90.92 249.93 92.43 C 245.94 94.65 241.94 96.82 238.00 99.10 C 237.76 99.91 237.30 101.53 237.07 102.34 C 235.33 99.49 233.74 96.56 232.14 93.63 C 233.84 93.66 235.72 94.18 237.26 93.16 C 242.31 90.50 247.22 87.60 252.23 84.87 Z" />
<path fill="#231f20" opacity="1.00" d=" M 260.00 99.85 C 260.56 98.90 261.11 97.95 261.67 97.00 C 263.10 102.27 265.71 107.41 265.52 112.98 C 264.70 118.20 257.73 119.29 253.96 116.48 C 252.38 114.03 251.29 111.30 250.37 108.55 C 247.93 109.33 245.51 110.12 243.10 110.94 C 242.80 111.72 242.19 113.28 241.89 114.05 C 240.63 110.71 239.58 107.29 238.68 103.83 C 239.62 104.36 240.57 104.89 241.51 105.43 C 247.73 103.76 253.86 101.79 260.00 99.85 M 252.22 108.30 C 253.28 109.87 253.73 112.57 255.98 112.90 C 258.10 113.18 260.41 112.45 262.02 111.03 C 263.69 109.35 262.42 106.99 262.10 105.03 C 258.76 106.00 255.42 106.95 252.22 108.30 Z" />
<path fill="#231f20" opacity="1.00" d=" M 26.13 114.80 C 28.04 115.08 29.95 115.36 31.86 115.67 C 31.62 118.05 29.20 118.43 27.68 119.75 C 27.05 121.48 26.90 123.33 26.57 125.13 C 29.38 125.59 32.20 126.03 35.03 126.45 C 35.11 125.61 35.27 123.93 35.35 123.08 C 34.21 122.05 33.45 120.81 33.08 119.34 C 35.79 119.64 38.47 120.09 41.12 120.72 C 39.20 122.38 36.95 123.96 36.87 126.76 C 40.01 127.28 43.16 127.76 46.31 128.23 C 46.59 126.48 46.93 124.73 46.98 122.96 C 46.02 120.84 42.71 120.24 43.29 117.37 C 45.51 117.79 47.73 118.24 49.94 118.72 C 48.97 124.60 48.16 130.50 47.06 136.36 C 46.41 135.48 45.77 134.60 45.14 133.72 C 38.82 132.59 32.48 131.59 26.13 130.69 C 25.46 131.15 24.13 132.06 23.46 132.51 C 24.14 126.58 25.23 120.70 26.13 114.80 Z" />
<path fill="#231f20" opacity="1.00" d=" M 36.36 173.47 C 40.86 170.75 47.08 174.89 46.62 180.03 C 46.50 185.25 39.83 188.64 35.64 185.39 C 31.35 182.68 31.80 175.64 36.36 173.47 Z" />
<path fill="#231f20" opacity="1.00" d=" M 247.53 173.67 C 249.34 172.42 251.61 172.72 253.67 172.90 C 256.41 174.56 258.81 177.57 257.99 180.97 C 257.56 183.74 255.16 185.45 252.87 186.70 C 250.33 186.70 247.48 186.34 245.81 184.18 C 242.94 181.11 243.89 175.70 247.53 173.67 Z" />
<path fill="#231f20" opacity="1.00" d=" M 68.35 216.57 C 72.24 220.33 76.77 223.65 79.64 228.31 C 82.39 232.71 77.75 238.29 73.07 238.19 C 69.26 238.27 66.63 235.14 64.00 232.85 C 62.09 234.79 60.23 236.77 58.45 238.82 C 58.58 239.65 58.84 241.31 58.96 242.13 C 56.06 239.85 53.38 237.29 50.99 234.47 C 51.78 234.50 53.36 234.56 54.15 234.59 C 58.66 230.28 62.93 225.73 67.24 221.23 C 68.71 220.09 68.37 218.18 68.35 216.57 M 65.57 231.23 C 66.90 232.37 68.10 233.92 69.95 234.23 C 72.57 234.13 74.57 231.95 75.71 229.78 C 76.83 227.40 74.72 225.31 73.03 223.95 C 70.16 225.94 68.11 228.86 65.57 231.23 Z" />
<path fill="#231f20" opacity="1.00" d=" M 219.74 221.93 C 220.86 220.71 221.98 219.50 223.10 218.28 C 225.87 219.66 228.63 221.05 231.41 222.42 C 236.86 224.71 241.75 228.89 247.89 229.05 C 245.37 231.77 242.87 234.50 240.15 237.03 C 240.23 236.19 240.39 234.53 240.47 233.70 C 238.82 232.68 237.16 231.70 235.49 230.73 C 233.70 232.74 231.90 234.73 230.09 236.73 C 231.04 238.15 232.00 239.58 232.97 241.01 C 233.89 240.97 235.75 240.89 236.68 240.86 C 235.08 242.81 233.39 244.68 231.57 246.43 C 231.35 246.63 230.92 247.04 230.70 247.25 C 230.46 244.84 230.08 242.39 228.90 240.24 C 225.80 234.16 222.78 228.04 219.74 221.93 M 224.06 224.81 C 225.66 228.05 227.33 231.25 229.04 234.43 C 230.58 232.87 232.10 231.29 233.61 229.70 C 230.44 228.04 227.26 226.41 224.06 224.81 Z" />
<path fill="#231f20" opacity="1.00" d=" M 205.41 233.47 C 206.46 232.76 207.51 232.08 208.58 231.41 C 208.44 232.27 208.14 233.98 208.00 234.83 C 211.96 240.44 216.02 245.97 220.07 251.52 C 221.48 250.38 222.98 249.31 224.20 247.95 C 224.36 245.51 222.98 242.78 224.91 240.74 C 226.42 242.89 227.87 245.08 229.32 247.27 C 224.56 250.92 219.70 254.45 214.79 257.89 C 215.71 252.96 211.22 249.75 208.92 245.98 C 206.29 242.84 204.65 238.00 200.01 237.48 C 201.80 236.14 203.57 234.75 205.41 233.47 Z" />
<path fill="#231f20" opacity="1.00" d=" M 63.70 247.56 C 72.98 244.90 78.93 236.21 87.67 232.50 C 88.77 233.32 89.87 234.17 90.96 235.02 C 88.99 242.95 85.54 250.62 84.52 258.71 C 84.60 259.34 84.76 260.61 84.84 261.24 C 81.68 259.28 78.54 257.27 75.54 255.07 C 76.38 254.96 78.08 254.73 78.92 254.61 C 79.60 252.87 80.27 251.12 80.93 249.37 C 78.64 247.90 76.33 246.43 74.02 244.98 C 72.74 246.24 71.46 247.49 70.19 248.76 C 70.39 249.64 70.80 251.39 71.00 252.26 C 68.55 250.73 66.13 249.13 63.70 247.56 M 76.02 243.69 C 77.88 244.87 79.74 246.04 81.61 247.19 C 82.66 243.79 83.70 240.40 84.73 237.00 C 81.78 239.17 78.87 241.39 76.02 243.69 Z" />
<path fill="#231f20" opacity="1.00" d=" M 95.46 238.94 C 97.82 239.99 100.49 240.56 102.56 242.17 C 103.88 248.85 104.53 255.65 105.29 262.42 C 107.09 257.61 109.02 252.85 110.86 248.05 C 110.43 246.93 110.00 245.81 109.60 244.68 C 112.01 245.64 114.42 246.63 116.83 247.61 C 111.47 250.15 111.21 256.90 108.76 261.66 C 107.58 264.58 106.32 267.46 105.06 270.35 C 103.57 269.34 100.93 269.17 100.75 266.98 C 99.50 260.24 98.83 253.40 97.84 246.62 C 95.98 251.80 93.84 256.87 91.89 262.01 C 92.34 263.06 92.80 264.12 93.25 265.18 C 92.67 264.99 91.52 264.62 90.94 264.43 C 89.49 263.88 88.07 263.26 86.69 262.58 C 86.57 262.45 86.34 262.20 86.23 262.08 C 87.61 261.32 89.24 260.62 89.74 258.96 C 91.75 254.22 93.65 249.42 95.56 244.64 C 96.48 242.80 95.98 240.80 95.46 238.94 Z" />
<path fill="#231f20" opacity="1.00" d=" M 189.98 241.89 C 191.50 241.20 193.03 240.51 194.57 239.83 C 199.14 245.10 203.76 250.32 208.35 255.57 C 209.62 257.15 211.48 258.00 213.27 258.86 C 213.10 258.99 212.78 259.25 212.62 259.38 L 212.23 259.67 C 209.41 261.05 206.49 262.21 203.65 263.53 C 205.30 260.64 203.35 258.22 201.65 255.99 C 199.11 257.09 196.58 258.23 194.07 259.40 C 194.41 261.16 194.76 262.92 195.12 264.68 C 195.97 264.96 197.67 265.50 198.52 265.77 C 195.98 267.21 193.33 268.46 190.65 269.60 C 191.26 267.46 191.90 265.27 191.65 263.02 C 191.10 255.97 190.53 248.93 189.98 241.89 M 192.92 246.23 C 193.21 249.85 193.56 253.47 193.92 257.08 C 195.93 256.15 197.93 255.22 199.94 254.29 C 197.62 251.58 195.30 248.88 192.92 246.23 Z" />
<path fill="#231f20" opacity="1.00" d=" M 170.29 250.36 C 171.93 248.17 174.59 247.17 177.08 246.27 C 179.03 245.90 181.00 245.64 182.98 245.38 C 183.46 247.36 183.93 249.34 184.34 251.34 C 181.26 250.84 178.48 246.98 175.35 249.37 C 173.16 250.62 173.69 254.10 175.81 255.13 C 178.70 256.45 181.98 256.60 184.85 257.99 C 188.71 259.93 189.91 265.78 186.93 268.99 C 184.81 271.37 181.55 272.13 178.57 272.87 C 177.03 272.82 174.32 274.46 173.92 272.05 C 173.31 270.56 172.91 268.99 172.48 267.45 C 175.86 267.33 178.23 271.88 181.71 269.70 C 184.75 268.51 184.09 263.86 181.31 262.80 C 178.54 261.68 175.48 261.46 172.76 260.20 C 169.27 258.52 167.85 253.46 170.29 250.36 Z" />
<path fill="#231f20" opacity="1.00" d=" M 121.58 248.79 C 124.79 249.19 128.01 249.62 131.22 250.09 C 131.91 253.88 132.68 257.65 133.44 261.43 C 133.67 262.85 133.91 264.28 134.16 265.70 C 136.83 261.05 139.27 256.27 141.82 251.56 C 144.85 251.98 147.88 252.43 150.90 252.92 C 149.98 253.67 149.07 254.43 148.16 255.19 C 147.16 261.79 146.20 268.38 145.42 275.01 C 146.06 275.96 146.70 276.91 147.34 277.87 C 146.60 277.78 145.12 277.61 144.38 277.52 C 141.89 277.19 139.42 276.73 136.96 276.25 C 137.64 275.81 138.99 274.94 139.67 274.50 C 140.63 268.63 141.49 262.75 142.22 256.85 C 139.13 261.74 136.83 267.08 133.80 272.01 C 133.12 273.38 131.35 272.72 130.16 273.04 C 128.84 266.74 127.69 260.42 126.35 254.13 C 125.56 260.10 124.72 266.05 123.93 272.02 C 124.46 272.70 125.53 274.07 126.07 274.75 C 123.50 274.48 120.94 274.22 118.37 273.98 C 119.56 272.54 121.12 271.18 121.23 269.17 C 122.15 263.40 122.80 257.59 123.66 251.82 C 122.96 250.80 122.27 249.80 121.58 248.79 Z" />
<path fill="#231f20" opacity="1.00" d=" M 155.72 250.59 C 157.35 250.44 158.97 250.29 160.59 250.13 C 163.42 256.41 166.25 262.68 169.08 268.95 C 169.92 270.99 171.49 272.56 173.06 274.05 C 169.34 274.56 165.62 275.06 161.87 275.36 C 162.48 274.75 163.70 273.52 164.32 272.91 C 163.69 271.13 163.06 269.35 162.42 267.58 C 159.75 267.96 157.08 268.33 154.41 268.69 C 153.95 271.46 153.39 274.57 156.46 275.98 C 156.37 276.08 156.20 276.28 156.12 276.38 C 153.44 276.84 150.73 277.10 148.04 277.47 C 149.40 275.52 150.73 273.48 151.12 271.09 C 152.60 264.24 154.11 257.41 155.72 250.59 M 154.94 266.42 C 157.13 266.11 159.31 265.79 161.49 265.48 C 160.07 262.28 158.68 259.08 157.26 255.89 C 156.27 259.35 155.62 262.89 154.94 266.42 Z" />
</g>
<g id="#ecb11fff">
<path fill="#ecb11f" opacity="1.00" d=" M 217.04 41.84 C 220.81 37.40 225.09 33.44 229.19 29.31 C 240.88 37.47 251.17 47.53 259.98 58.71 C 257.72 60.86 255.14 62.79 253.47 65.47 C 252.29 70.72 253.44 76.18 252.86 81.51 C 252.66 82.63 252.45 83.75 252.23 84.87 C 247.22 87.60 242.31 90.50 237.26 93.16 C 235.72 94.18 233.84 93.66 232.14 93.63 C 233.74 96.56 235.33 99.49 237.07 102.34 C 237.30 101.53 237.76 99.91 238.00 99.10 C 241.94 96.82 245.94 94.65 249.93 92.43 C 247.52 97.11 241.90 99.74 241.51 105.43 C 240.57 104.89 239.62 104.36 238.68 103.83 C 239.58 107.29 240.63 110.71 241.89 114.05 C 242.19 113.28 242.80 111.72 243.10 110.94 C 245.51 110.12 247.93 109.33 250.37 108.55 C 251.29 111.30 252.38 114.03 253.96 116.48 C 253.29 119.27 252.80 122.12 252.87 125.00 C 252.97 133.99 253.07 142.98 253.02 151.97 C 253.03 158.94 252.41 165.98 253.67 172.90 C 251.61 172.72 249.34 172.42 247.53 173.67 C 243.89 175.70 242.94 181.11 245.81 184.18 C 247.48 186.34 250.33 186.70 252.87 186.70 C 253.13 198.46 253.00 210.24 253.02 222.01 C 253.08 228.22 252.66 234.49 253.69 240.66 L 253.72 240.89 C 247.16 248.01 240.02 254.54 232.37 260.47 C 232.08 255.79 231.85 251.11 231.57 246.43 C 233.39 244.68 235.08 242.81 236.68 240.86 C 235.75 240.89 233.89 240.97 232.97 241.01 C 232.00 239.58 231.04 238.15 230.09 236.73 C 231.90 234.73 233.70 232.74 235.49 230.73 C 237.16 231.70 238.82 232.68 240.47 233.70 C 240.39 234.53 240.23 236.19 240.15 237.03 C 242.87 234.50 245.37 231.77 247.89 229.05 C 241.75 228.89 236.86 224.71 231.41 222.42 C 232.46 215.98 231.83 209.45 231.93 202.96 C 232.04 190.29 231.88 177.62 232.03 164.95 C 232.05 161.81 231.68 158.69 231.41 155.58 C 233.79 134.07 227.75 111.76 214.57 94.56 C 215.53 86.99 215.00 79.35 215.21 71.75 C 224.05 70.74 225.49 58.76 233.85 57.01 C 231.63 55.19 229.43 53.36 227.18 51.58 C 227.26 52.42 227.43 54.09 227.51 54.93 C 223.85 59.12 220.65 63.77 216.56 67.56 C 213.84 70.46 208.60 66.55 210.27 63.07 C 212.49 58.91 216.06 55.67 218.92 51.95 C 220.14 50.12 222.12 49.26 224.26 49.00 C 222.36 47.43 220.47 45.85 218.63 44.21 C 218.09 43.43 217.56 42.64 217.04 41.84 M 238.93 62.58 C 238.89 63.38 238.81 64.97 238.77 65.77 C 233.62 69.85 228.54 74.02 223.16 77.81 C 222.48 77.61 221.13 77.21 220.45 77.01 C 223.24 82.14 227.44 86.31 230.85 91.02 C 232.87 89.62 234.88 88.22 236.88 86.80 C 235.31 83.87 232.25 86.90 229.95 86.03 C 228.68 84.93 227.72 83.55 226.68 82.27 C 231.84 78.27 236.94 74.20 242.12 70.24 C 242.93 70.37 244.56 70.61 245.37 70.74 C 243.49 67.82 241.36 65.07 238.93 62.58 Z" />
</g>
<g id="#b18c34ff">
<path fill="#b18c34" opacity="1.00" d=" M 27.21 68.27 C 35.89 54.96 46.67 42.91 59.42 33.39 C 60.99 40.76 59.26 48.34 60.76 55.72 C 60.06 56.26 59.38 56.80 58.69 57.35 C 60.75 58.10 62.86 58.88 64.57 60.30 C 69.54 64.21 74.48 68.16 79.54 71.95 C 80.66 71.13 81.80 70.32 82.93 69.52 C 81.10 64.12 78.84 58.88 76.95 53.50 C 80.27 56.00 83.46 58.67 86.64 61.34 C 85.73 63.10 84.71 64.91 84.81 66.96 C 84.75 73.82 84.62 80.72 85.27 87.56 C 71.36 102.16 62.98 121.83 62.08 141.98 C 60.63 168.83 72.94 195.90 94.10 212.49 C 92.00 214.57 89.25 216.31 88.11 219.13 C 87.34 223.54 87.91 228.04 87.67 232.50 C 78.93 236.21 72.98 244.90 63.70 247.56 C 66.13 249.13 68.55 250.73 71.00 252.26 C 70.80 251.39 70.39 249.64 70.19 248.76 C 71.46 247.49 72.74 246.24 74.02 244.98 C 76.33 246.43 78.64 247.90 80.93 249.37 C 80.27 251.12 79.60 252.87 78.92 254.61 C 78.08 254.73 76.38 254.96 75.54 255.07 C 78.54 257.27 81.68 259.28 84.84 261.24 C 84.76 260.61 84.60 259.34 84.52 258.71 C 84.95 259.55 85.80 261.24 86.23 262.08 C 86.34 262.20 86.57 262.45 86.69 262.58 C 88.07 263.26 89.49 263.88 90.94 264.43 C 86.92 266.23 84.39 269.94 84.23 274.37 C 49.61 257.28 22.15 225.94 10.81 188.92 C -2.12 148.95 4.08 103.34 27.21 68.27 M 47.94 70.94 C 51.21 77.04 54.55 83.11 57.85 89.20 C 58.99 91.02 58.94 93.21 59.13 95.27 C 55.23 96.05 51.03 95.30 47.39 97.18 C 48.12 91.72 41.25 86.89 36.85 90.85 C 33.15 94.83 31.71 100.32 29.30 105.09 C 30.82 104.73 32.49 103.99 33.97 104.93 C 39.25 107.32 44.48 109.82 49.72 112.30 C 50.00 113.08 50.58 114.64 50.86 115.42 C 52.50 112.41 53.95 109.31 55.19 106.11 C 54.14 106.49 53.10 106.87 52.06 107.26 C 49.65 106.20 47.28 105.07 44.93 103.87 C 45.88 102.93 46.50 101.28 48.07 101.40 C 51.32 101.21 54.57 101.30 57.81 101.05 C 59.68 96.65 60.89 91.93 64.46 88.49 C 61.26 89.70 59.45 86.93 58.33 84.38 C 60.04 82.55 61.70 80.69 63.34 78.79 C 65.77 79.94 68.77 81.07 68.09 84.40 C 70.55 82.01 72.78 79.40 74.89 76.70 C 73.25 76.62 71.50 76.83 69.98 76.05 C 63.64 73.21 57.36 70.22 51.02 67.38 C 49.99 68.56 48.97 69.75 47.94 70.94 M 26.13 114.80 C 25.23 120.70 24.14 126.58 23.46 132.51 C 24.13 132.06 25.46 131.15 26.13 130.69 C 32.48 131.59 38.82 132.59 45.14 133.72 C 45.77 134.60 46.41 135.48 47.06 136.36 C 48.16 130.50 48.97 124.60 49.94 118.72 C 47.73 118.24 45.51 117.79 43.29 117.37 C 42.71 120.24 46.02 120.84 46.98 122.96 C 46.93 124.73 46.59 126.48 46.31 128.23 C 43.16 127.76 40.01 127.28 36.87 126.76 C 36.95 123.96 39.20 122.38 41.12 120.72 C 38.47 120.09 35.79 119.64 33.08 119.34 C 33.45 120.81 34.21 122.05 35.35 123.08 C 35.27 123.93 35.11 125.61 35.03 126.45 C 32.20 126.03 29.38 125.59 26.57 125.13 C 26.90 123.33 27.05 121.48 27.68 119.75 C 29.20 118.43 31.62 118.05 31.86 115.67 C 29.95 115.36 28.04 115.08 26.13 114.80 M 36.36 173.47 C 31.80 175.64 31.35 182.68 35.64 185.39 C 39.83 188.64 46.50 185.25 46.62 180.03 C 47.08 174.89 40.86 170.75 36.36 173.47 M 68.35 216.57 C 68.37 218.18 68.71 220.09 67.24 221.23 C 62.93 225.73 58.66 230.28 54.15 234.59 C 53.36 234.56 51.78 234.50 50.99 234.47 C 53.38 237.29 56.06 239.85 58.96 242.13 C 58.84 241.31 58.58 239.65 58.45 238.82 C 60.23 236.77 62.09 234.79 64.00 232.85 C 66.63 235.14 69.26 238.27 73.07 238.19 C 77.75 238.29 82.39 232.71 79.64 228.31 C 76.77 223.65 72.24 220.33 68.35 216.57 Z" />
<path fill="#b18c34" opacity="1.00" d=" M 34.31 99.01 C 35.24 97.33 35.93 95.15 37.99 94.54 C 40.23 94.44 42.60 95.33 44.01 97.11 C 45.38 98.93 44.01 101.18 43.65 103.10 C 40.43 101.98 37.37 100.49 34.31 99.01 Z" />
</g>
<g id="#c19530ff">
<path fill="#c19530" opacity="1.00" d=" M 101.27 35.65 C 103.48 38.24 105.58 40.92 107.56 43.68 C 105.61 44.43 103.65 45.16 101.70 45.90 C 101.57 42.48 101.42 39.07 101.27 35.65 Z" />
</g>
<g id="#f4b61aff">
<path fill="#f4b61a" opacity="1.00" d=" M 253.47 65.47 C 255.14 62.79 257.72 60.86 259.98 58.71 C 265.03 65.55 269.86 72.59 273.61 80.24 C 271.00 84.73 272.15 90.05 272.01 94.98 C 272.00 131.98 272.04 168.99 271.93 205.99 C 272.00 208.52 272.32 211.03 272.50 213.55 C 267.69 223.46 260.98 232.42 253.69 240.66 C 252.66 234.49 253.08 228.22 253.02 222.01 C 253.00 210.24 253.13 198.46 252.87 186.70 C 255.16 185.45 257.56 183.74 257.99 180.97 C 258.81 177.57 256.41 174.56 253.67 172.90 C 252.41 165.98 253.03 158.94 253.02 151.97 C 253.07 142.98 252.97 133.99 252.87 125.00 C 252.80 122.12 253.29 119.27 253.96 116.48 C 257.73 119.29 264.70 118.20 265.52 112.98 C 265.71 107.41 263.10 102.27 261.67 97.00 C 261.11 97.95 260.56 98.90 260.00 99.85 C 253.86 101.79 247.73 103.76 241.51 105.43 C 241.90 99.74 247.52 97.11 249.93 92.43 C 252.33 90.92 254.96 89.58 257.91 90.40 C 256.26 87.41 254.66 84.40 252.86 81.51 C 253.44 76.18 252.29 70.72 253.47 65.47 Z" />
</g>
<g id="#b48e34ff">
<path fill="#b48e34" opacity="1.00" d=" M 52.21 73.63 C 55.11 75.06 58.30 76.02 60.96 77.90 C 60.17 79.77 58.51 81.08 57.21 82.59 C 55.50 79.63 53.83 76.64 52.21 73.63 Z" />
</g>
<g id="#f9ba15ff">
<path fill="#f9ba15" opacity="1.00" d=" M 272.01 94.98 C 272.15 90.05 271.00 84.73 273.61 80.24 C 295.32 121.15 295.17 173.08 272.50 213.55 C 272.32 211.03 272.00 208.52 271.93 205.99 C 272.04 168.99 272.00 131.98 272.01 94.98 Z" />
</g>
<g id="#ee1d23ff">
<path fill="#ee1d23" opacity="1.00" d=" M 101.01 110.87 C 99.65 103.13 102.13 95.32 106.58 89.01 C 105.36 97.84 108.74 106.78 114.87 113.13 C 117.93 116.79 122.24 119.01 125.69 122.22 C 131.91 128.83 131.95 138.80 130.30 147.20 C 128.91 146.15 127.99 144.70 127.91 142.92 C 125.47 128.34 115.44 116.09 103.32 108.15 C 102.55 109.05 101.78 109.96 101.01 110.87 Z" />
<path fill="#ee1d23" opacity="1.00" d=" M 155.25 108.91 C 156.90 101.29 162.20 95.08 168.42 90.65 C 168.12 96.69 167.96 103.08 171.15 108.48 C 174.12 102.99 176.78 96.34 183.20 94.13 C 188.83 106.89 191.55 121.38 188.29 135.13 C 186.31 143.70 181.78 151.54 175.73 157.88 C 179.15 147.26 180.77 135.95 179.67 124.81 C 179.08 120.71 178.14 116.06 174.57 113.47 C 169.39 110.36 161.89 114.11 160.92 120.03 C 159.21 128.66 162.79 137.12 163.11 145.70 C 156.83 134.72 152.41 121.62 155.25 108.91 Z" />
<path fill="#ee1d23" opacity="1.00" d=" M 128.04 109.18 C 134.59 109.76 142.02 111.32 145.74 117.35 C 151.11 126.35 150.49 137.50 155.38 146.72 C 157.63 151.43 161.36 155.22 165.51 158.31 C 165.61 159.10 165.81 160.67 165.91 161.45 C 155.83 158.02 147.66 149.85 143.94 139.90 C 141.14 133.42 141.69 125.95 138.16 119.74 C 136.03 115.21 132.28 111.73 128.04 109.18 Z" />
<path fill="#ee1d23" opacity="1.00" d=" M 71.90 115.02 C 78.91 112.32 86.99 111.68 93.93 114.95 C 104.18 119.69 111.38 129.17 116.27 139.08 C 110.01 134.38 105.36 127.48 98.02 124.29 C 93.10 121.95 86.49 125.60 86.02 131.04 C 86.04 135.17 89.22 138.32 92.08 140.91 C 99.99 147.42 109.43 151.90 119.24 154.73 C 107.60 156.66 95.29 154.25 85.55 147.50 C 78.01 142.49 71.96 135.58 67.05 128.03 C 71.91 124.13 78.36 125.80 84.03 126.00 C 81.39 120.99 76.63 117.81 71.90 115.02 Z" />
</g>
<g id="#f2b41cff">
<path fill="#f2b41c" opacity="1.00" d=" M 252.22 108.30 C 255.42 106.95 258.76 106.00 262.10 105.03 C 262.42 106.99 263.69 109.35 262.02 111.03 C 260.41 112.45 258.10 113.18 255.98 112.90 C 253.73 112.57 253.28 109.87 252.22 108.30 Z" />
</g>
<g id="#388c66ff">
<path fill="#388c66" opacity="1.00" d=" M 128.28 157.05 C 129.85 155.75 131.42 154.45 132.99 153.16 C 135.89 155.49 138.72 157.93 141.31 160.62 C 154.55 174.44 165.33 190.36 175.91 206.25 C 170.77 193.56 165.65 179.66 168.55 165.81 C 170.73 165.84 172.91 165.86 175.08 165.89 C 174.14 184.96 176.76 204.78 185.76 221.83 C 184.33 222.71 182.80 223.43 181.21 223.97 C 177.63 216.09 173.23 208.56 168.07 201.61 C 172.30 208.98 175.83 216.72 178.96 224.62 L 179.07 225.00 C 178.72 225.09 178.00 225.26 177.65 225.35 C 169.76 212.08 161.17 198.85 149.33 188.72 C 143.86 184.19 137.39 179.86 129.98 180.13 C 125.00 180.15 119.11 182.12 117.23 187.18 C 115.59 191.84 118.27 196.40 120.33 200.43 C 115.83 197.95 111.02 195.14 108.79 190.27 C 106.66 185.95 107.75 180.55 111.03 177.11 C 116.02 171.66 124.03 170.01 131.13 171.09 C 138.94 172.15 145.78 176.45 151.83 181.26 C 144.41 172.78 136.46 164.80 128.28 157.05 Z" />
<path fill="#388c66" opacity="1.00" d=" M 191.30 166.28 C 199.04 162.47 208.97 163.92 215.34 169.72 C 218.69 174.74 219.47 181.89 216.19 187.16 C 214.86 189.36 212.80 190.96 210.83 192.54 C 212.15 187.08 214.33 180.52 210.72 175.48 C 208.85 172.54 205.01 173.30 202.09 173.44 C 195.75 174.07 190.98 179.50 189.63 185.47 C 187.20 195.74 189.31 206.38 191.69 216.45 C 190.59 217.06 189.50 217.67 188.41 218.28 C 183.87 207.13 179.85 195.23 180.89 183.02 C 181.39 176.20 185.00 169.36 191.30 166.28 Z" />
</g>
<g id="#e5ac22ff">
<path fill="#e5ac22" opacity="1.00" d=" M 204.55 208.41 C 219.44 194.74 229.07 175.64 231.41 155.58 C 231.68 158.69 232.05 161.81 232.03 164.95 C 231.88 177.62 232.04 190.29 231.93 202.96 C 231.83 209.45 232.46 215.98 231.41 222.42 C 228.63 221.05 225.87 219.66 223.10 218.28 C 221.98 219.50 220.86 220.71 219.74 221.93 C 222.78 228.04 225.80 234.16 228.90 240.24 C 230.08 242.39 230.46 244.84 230.70 247.25 C 230.92 247.04 231.35 246.63 231.57 246.43 C 231.85 251.11 232.08 255.79 232.37 260.47 C 223.76 266.58 214.75 272.22 205.02 276.39 C 205.07 273.43 204.53 270.31 205.50 267.46 C 207.46 264.64 210.06 262.33 212.23 259.67 L 212.62 259.38 C 213.16 259.00 214.25 258.26 214.79 257.89 C 219.70 254.45 224.56 250.92 229.32 247.27 C 227.87 245.08 226.42 242.89 224.91 240.74 C 222.98 242.78 224.36 245.51 224.20 247.95 C 222.98 249.31 221.48 250.38 220.07 251.52 C 216.02 245.97 211.96 240.44 208.00 234.83 C 208.14 233.98 208.44 232.27 208.58 231.41 C 207.51 232.08 206.46 232.76 205.41 233.47 C 204.56 225.13 205.48 216.74 204.55 208.41 Z" />
</g>
<g id="#dca625ff">
<path fill="#dca625" opacity="1.00" d=" M 185.76 221.83 C 192.34 217.82 198.93 213.74 204.55 208.41 C 205.48 216.74 204.56 225.13 205.41 233.47 C 203.57 234.75 201.80 236.14 200.01 237.48 C 204.65 238.00 206.29 242.84 208.92 245.98 C 211.22 249.75 215.71 252.96 214.79 257.89 C 214.25 258.26 213.16 259.00 212.62 259.38 C 212.78 259.25 213.10 258.99 213.27 258.86 C 211.48 258.00 209.62 257.15 208.35 255.57 C 203.76 250.32 199.14 245.10 194.57 239.83 C 193.03 240.51 191.50 241.20 189.98 241.89 C 190.53 248.93 191.10 255.97 191.65 263.02 C 191.90 265.27 191.26 267.46 190.65 269.60 C 193.33 268.46 195.98 267.21 198.52 265.77 C 197.67 265.50 195.97 264.96 195.12 264.68 C 194.76 262.92 194.41 261.16 194.07 259.40 C 196.58 258.23 199.11 257.09 201.65 255.99 C 203.35 258.22 205.30 260.64 203.65 263.53 C 206.49 262.21 209.41 261.05 212.23 259.67 C 210.06 262.33 207.46 264.64 205.50 267.46 C 204.53 270.31 205.07 273.43 205.02 276.39 C 196.02 280.41 186.61 283.58 176.94 285.52 C 176.90 281.25 176.76 276.84 178.57 272.87 C 181.55 272.13 184.81 271.37 186.93 268.99 C 189.91 265.78 188.71 259.93 184.85 257.99 C 181.98 256.60 178.70 256.45 175.81 255.13 C 173.69 254.10 173.16 250.62 175.35 249.37 C 178.48 246.98 181.26 250.84 184.34 251.34 C 183.93 249.34 183.46 247.36 182.98 245.38 C 181.00 245.64 179.03 245.90 177.08 246.27 C 177.42 239.16 175.63 231.61 179.07 225.00 L 178.96 224.62 C 179.52 224.46 180.65 224.13 181.21 223.97 C 182.80 223.43 184.33 222.71 185.76 221.83 Z" />
</g>
<g id="#c09430ff">
<path fill="#c09430" opacity="1.00" d=" M 88.11 219.13 C 89.25 216.31 92.00 214.57 94.10 212.49 C 101.37 218.26 109.58 222.83 118.31 225.99 C 115.59 229.04 112.40 231.65 109.85 234.86 C 108.14 237.82 108.92 241.51 109.60 244.68 C 110.00 245.81 110.43 246.93 110.86 248.05 C 109.02 252.85 107.09 257.61 105.29 262.42 C 104.53 255.65 103.88 248.85 102.56 242.17 C 100.49 240.56 97.82 239.99 95.46 238.94 C 95.98 240.80 96.48 242.80 95.56 244.64 C 93.65 249.42 91.75 254.22 89.74 258.96 C 89.24 260.62 87.61 261.32 86.23 262.08 C 85.80 261.24 84.95 259.55 84.52 258.71 C 85.54 250.62 88.99 242.95 90.96 235.02 C 89.87 234.17 88.77 233.32 87.67 232.50 C 87.91 228.04 87.34 223.54 88.11 219.13 Z" />
</g>
<g id="#b89032ff">
<path fill="#b89032" opacity="1.00" d=" M 65.57 231.23 C 68.11 228.86 70.16 225.94 73.03 223.95 C 74.72 225.31 76.83 227.40 75.71 229.78 C 74.57 231.95 72.57 234.13 69.95 234.23 C 68.10 233.92 66.90 232.37 65.57 231.23 Z" />
</g>
<g id="#d5a228ff">
<path fill="#d5a228" opacity="1.00" d=" M 177.65 225.35 C 178.00 225.26 178.72 225.09 179.07 225.00 C 175.63 231.61 177.42 239.16 177.08 246.27 C 174.59 247.17 171.93 248.17 170.29 250.36 C 167.85 253.46 169.27 258.52 172.76 260.20 C 175.48 261.46 178.54 261.68 181.31 262.80 C 184.09 263.86 184.75 268.51 181.71 269.70 C 178.23 271.88 175.86 267.33 172.48 267.45 C 172.91 268.99 173.31 270.56 173.92 272.05 C 174.32 274.46 177.03 272.82 178.57 272.87 C 176.76 276.84 176.90 281.25 176.94 285.52 C 170.10 287.22 163.08 287.79 156.09 288.52 C 156.03 284.47 155.91 280.42 156.12 276.38 C 156.20 276.28 156.37 276.08 156.46 275.98 C 153.39 274.57 153.95 271.46 154.41 268.69 C 157.08 268.33 159.75 267.96 162.42 267.58 C 163.06 269.35 163.69 271.13 164.32 272.91 C 163.70 273.52 162.48 274.75 161.87 275.36 C 165.62 275.06 169.34 274.56 173.06 274.05 C 171.49 272.56 169.92 270.99 169.08 268.95 C 166.25 262.68 163.42 256.41 160.59 250.13 C 158.97 250.29 157.35 250.44 155.72 250.59 C 157.15 244.69 153.83 237.41 158.64 232.63 C 159.42 231.66 160.24 230.71 161.05 229.76 C 166.73 228.90 172.18 227.06 177.65 225.35 Z" />
</g>
<g id="#e9ae21ff">
<path fill="#e9ae21" opacity="1.00" d=" M 224.06 224.81 C 227.26 226.41 230.44 228.04 233.61 229.70 C 232.10 231.29 230.58 232.87 229.04 234.43 C 227.33 231.25 225.66 228.05 224.06 224.81 Z" />
</g>
<g id="#c7992eff">
<path fill="#c7992e" opacity="1.00" d=" M 118.31 225.99 C 128.85 229.70 140.09 231.37 151.25 230.84 C 146.66 236.04 141.60 240.80 136.70 245.69 C 132.22 249.62 134.59 256.25 133.44 261.43 C 132.68 257.65 131.91 253.88 131.22 250.09 C 128.01 249.62 124.79 249.19 121.58 248.79 C 122.27 249.80 122.96 250.80 123.66 251.82 C 122.80 257.59 122.15 263.40 121.23 269.17 C 121.12 271.18 119.56 272.54 118.37 273.98 C 120.94 274.22 123.50 274.48 126.07 274.75 C 125.53 274.07 124.46 272.70 123.93 272.02 C 124.72 266.05 125.56 260.10 126.35 254.13 C 127.69 260.42 128.84 266.74 130.16 273.04 C 131.35 272.72 133.12 273.38 133.80 272.01 C 136.83 267.08 139.13 261.74 142.22 256.85 C 141.49 262.75 140.63 268.63 139.67 274.50 C 138.99 274.94 137.64 275.81 136.96 276.25 C 139.42 276.73 141.89 277.19 144.38 277.52 C 141.36 281.24 137.93 284.60 134.72 288.16 C 125.12 287.47 115.62 285.57 106.38 282.92 L 106.39 282.74 C 106.46 275.57 110.23 268.89 108.76 261.66 C 111.21 256.90 111.47 250.15 116.83 247.61 C 114.42 246.63 112.01 245.64 109.60 244.68 C 108.92 241.51 108.14 237.82 109.85 234.86 C 112.40 231.65 115.59 229.04 118.31 225.99 Z" />
</g>
<g id="#cf9e2aff">
<path fill="#cf9e2a" opacity="1.00" d=" M 151.25 230.84 C 154.53 230.61 157.80 230.28 161.05 229.76 C 160.24 230.71 159.42 231.66 158.64 232.63 C 153.83 237.41 157.15 244.69 155.72 250.59 C 154.11 257.41 152.60 264.24 151.12 271.09 C 150.73 273.48 149.40 275.52 148.04 277.47 C 150.73 277.10 153.44 276.84 156.12 276.38 C 155.91 280.42 156.03 284.47 156.09 288.52 C 148.97 288.87 141.81 289.00 134.72 288.16 C 137.93 284.60 141.36 281.24 144.38 277.52 C 145.12 277.61 146.60 277.78 147.34 277.87 C 146.70 276.91 146.06 275.96 145.42 275.01 C 146.20 268.38 147.16 261.79 148.16 255.19 C 149.07 254.43 149.98 253.67 150.90 252.92 C 147.88 252.43 144.85 251.98 141.82 251.56 C 139.27 256.27 136.83 261.05 134.16 265.70 C 133.91 264.28 133.67 262.85 133.44 261.43 C 134.59 256.25 132.22 249.62 136.70 245.69 C 141.60 240.80 146.66 236.04 151.25 230.84 Z" />
</g>
<g id="#bb9132ff">
<path fill="#bb9132" opacity="1.00" d=" M 76.02 243.69 C 78.87 241.39 81.78 239.17 84.73 237.00 C 83.70 240.40 82.66 243.79 81.61 247.19 C 79.74 246.04 77.88 244.87 76.02 243.69 Z" />
</g>
<g id="#bf9430ff">
<path fill="#bf9430" opacity="1.00" d=" M 91.89 262.01 C 93.84 256.87 95.98 251.80 97.84 246.62 C 98.83 253.40 99.50 260.24 100.75 266.98 C 100.93 269.17 103.57 269.34 105.06 270.35 C 106.32 267.46 107.58 264.58 108.76 261.66 C 110.23 268.89 106.46 275.57 106.39 282.74 C 98.68 280.89 91.48 277.51 84.23 274.37 C 84.39 269.94 86.92 266.23 90.94 264.43 C 91.52 264.62 92.67 264.99 93.25 265.18 C 92.80 264.12 92.34 263.06 91.89 262.01 Z" />
</g>
<g id="#dda725ff">
<path fill="#dda725" opacity="1.00" d=" M 192.92 246.23 C 195.30 248.88 197.62 251.58 199.94 254.29 C 197.93 255.22 195.93 256.15 193.92 257.08 C 193.56 253.47 193.21 249.85 192.92 246.23 Z" />
</g>
<g id="#d2a029ff">
<path fill="#d2a029" opacity="1.00" d=" M 154.94 266.42 C 155.62 262.89 156.27 259.35 157.26 255.89 C 158.68 259.08 160.07 262.28 161.49 265.48 C 159.31 265.79 157.13 266.11 154.94 266.42 Z" />
</g>
</svg>
